# xmcd
#
# Track frame offsets:
#	150
#	11252
#	21047
#	30927
#	42450
#	54914
#	68996
#	82203
#	95928
#	107093
#	121742
#	133188
#	146221
#	159107
#	174212
#	189089
#	204235
#	219493
#	232920
#	247406
#	263604
#	275585
#	287904
#	297629
#
# Disc length: 4155 seconds
#
# Revision: 0
# Processed by: cddbd v1.5.2PL0 Copyright (c) Steve Scherf et al.
# Submitted via: EasyCDDAExtractor 16.1.0.1
#
DISCID=5c103918
DTITLE=Glen Campbell - The Definitive Collection
DYEAR=2013
DGENRE=Country
TTITLE0=Try A Little Kindness
TTITLE1=The Universal Soldier
TTITLE2=Less Of Me (With Bobbie Gentry)
TTITLE3=Hey Little One
TTITLE4=I Wanna Live
TTITLE5=Wichita Lineman
TTITLE6=Where's The Playground Susie
TTITLE7=Honey Come Back
TTITLE8=It's Only Make Believe
TTITLE9=I Say A Little Prayer -  By The Time I Get To Phoenix (With Anne Murra
TTITLE9=y)
TTITLE10=Dream Baby (How Long Must I Dream)
TTITLE11=I Knew Jesus (Before He Was A Star)
TTITLE12=Bonaparte's Retreat
TTITLE13=Houston (I'm Comin' To See You)
TTITLE14=Rhinestone Cowboy
TTITLE15=Don't Pull Your Love - Then You Can Tell Me Goodbye
TTITLE16=God Must Have Blessed America
TTITLE17=Southern Nights
TTITLE18=Can You Fool
TTITLE19=California
TTITLE20=Hound Dog Man
TTITLE21=Somethin' 'bout You Baby I Like (With Rita Coolidge)
TTITLE22=Let It Be Me (With Bobbie Gentry)
TTITLE23=Why Don't We Just Sleep On It Tonight (With Tanya Tucker)
EXTD=
EXTT0=
EXTT1=
EXTT2=
EXTT3=
EXTT4=
EXTT5=
EXTT6=
EXTT7=
EXTT8=
EXTT9=
EXTT10=
EXTT11=
EXTT12=
EXTT13=
EXTT14=
EXTT15=
EXTT16=
EXTT17=
EXTT18=
EXTT19=
EXTT20=
EXTT21=
EXTT22=
EXTT23=
PLAYORDER=
